<?xml version="1.0" encoding="UTF-8" standalone="no"?>
<!-- Created with Inkscape (http://www.inkscape.org/) -->

<svg
   width="210mm"
   height="297mm"
   viewBox="0 0 210 297"
   version="1.1"
   id="svg5"
   inkscape:version="1.1 (c68e22c387, 2021-05-23)"
   sodipodi:docname="feutre.svg"
   xmlns:inkscape="http://www.inkscape.org/namespaces/inkscape"
   xmlns:sodipodi="http://sodipodi.sourceforge.net/DTD/sodipodi-0.dtd"
   xmlns="http://www.w3.org/2000/svg"
   xmlns:svg="http://www.w3.org/2000/svg">
  <sodipodi:namedview
     id="namedview7"
     pagecolor="#ffffff"
     bordercolor="#666666"
     borderopacity="1.0"
     inkscape:pageshadow="2"
     inkscape:pageopacity="0.0"
     inkscape:pagecheckerboard="0"
     inkscape:document-units="mm"
     showgrid="false"
     inkscape:zoom="3.0574074"
     inkscape:cx="397.88613"
     inkscape:cy="407.04422"
     inkscape:window-width="1920"
     inkscape:window-height="1017"
     inkscape:window-x="3832"
     inkscape:window-y="-8"
     inkscape:window-maximized="1"
     inkscape:current-layer="layer1" />
  <defs
     id="defs2" />
  <g
     inkscape:label="Layer 1"
     inkscape:groupmode="layer"
     id="layer1">
    <g
       id="g4357">
      <g
         aria-label="feutre"
         id="text2289"
         style="font-weight:bold;font-size:10.5833px;line-height:1.25;font-family:Bariol;-inkscape-font-specification:'Bariol Bold';letter-spacing:0px;word-spacing:0px;stroke-width:0.264583">
        <path
           d="m 86.234328,98.964251 v 3.915819 c 0,0.1905 0.148166,0.33867 0.338665,0.33867 0.1905,0 0.338666,-0.14817 0.338666,-0.33867 v -3.915819 h 0.96308 c 0.179916,0 0.317499,-0.137583 0.317499,-0.317499 0,-0.179916 -0.137583,-0.317499 -0.317499,-0.317499 h -0.96308 v -0.624414 c 0,-0.687915 0.328082,-1.18533 1.15358,-1.18533 0.179916,0 0.317499,-0.137583 0.317499,-0.317499 0,-0.179916 -0.137583,-0.317499 -0.317499,-0.317499 -1.291163,0 -1.830911,0.867831 -1.830911,1.820328 v 0.624414 h -0.359832 c -0.179916,0 -0.317499,0.137583 -0.317499,0.317499 0,0.179916 0.137583,0.317499 0.317499,0.317499 z"
           style="font-weight:normal;-inkscape-font-specification:Bariol"
           id="path4359" />
        <path
           d="m 88.710804,100.72108 c 0,1.77799 0.878414,2.55057 2.285993,2.55057 0.941913,0 1.492245,-0.43391 1.650994,-0.59266 0.0635,-0.0635 0.116417,-0.127 0.116417,-0.24342 0,-0.16933 -0.137583,-0.30691 -0.306916,-0.30691 -0.08467,0 -0.127,0.0212 -0.190499,0.0635 -0.296333,0.22225 -0.656165,0.45508 -1.269996,0.45508 -0.99483,0 -1.598078,-0.67733 -1.598078,-1.72508 h 3.090323 c 0.423332,0 0.423332,-0.37041 0.423332,-0.67733 0,-0.719664 -0.328082,-2.063743 -2.02141,-2.063743 -1.375829,0 -2.18016,0.910164 -2.18016,2.539993 z m 3.534822,-0.39158 h -2.846907 c 0.0635,-0.941917 0.571498,-1.534582 1.492245,-1.534582 1.09008,0 1.354662,0.772581 1.354662,1.534582 z"
           style="font-weight:normal;-inkscape-font-specification:Bariol"
           id="path4361" />
        <path
           d="m 94.192949,98.244587 c -0.1905,0 -0.338666,0.148166 -0.338666,0.338666 v 2.762237 c 0,1.00542 0.338666,1.92616 1.968494,1.92616 1.640411,0 1.968493,-0.92074 1.968493,-1.92616 v -2.762237 c 0,-0.1905 -0.148166,-0.338666 -0.328082,-0.338666 -0.190499,0 -0.349249,0.148166 -0.349249,0.338666 v 2.762237 c 0,0.68792 -0.222249,1.28058 -1.291162,1.28058 -1.068914,0 -1.291163,-0.59266 -1.291163,-1.28058 v -2.762237 c 0,-0.1905 -0.158749,-0.338666 -0.338665,-0.338666 z"
           style="font-weight:normal;-inkscape-font-specification:Bariol"
           id="path4363" />
        <path
           d="m 99.325833,98.329253 h -0.412749 c -0.179916,0 -0.317499,0.137583 -0.317499,0.317499 0,0.179916 0.137583,0.317499 0.317499,0.317499 h 0.412749 v 2.920989 c 0,0.77258 0.455082,1.3335 1.291167,1.3335 0.17991,0 0.32808,-0.13759 0.32808,-0.3175 0,-0.17992 -0.14817,-0.3175 -0.32808,-0.3175 -0.35984,0 -0.61384,-0.24342 -0.61384,-0.6985 v -2.920989 h 0.68792 c 0.17991,0 0.3175,-0.137583 0.3175,-0.317499 0,-0.179916 -0.13759,-0.317499 -0.3175,-0.317499 h -0.68792 v -1.111246 c 0,-0.179916 -0.148162,-0.338666 -0.338662,-0.338666 -0.179916,0 -0.338665,0.15875 -0.338665,0.338666 z"
           style="font-weight:normal;-inkscape-font-specification:Bariol"
           id="path4365" />
        <path
           d="m 102.69131,98.583253 c 0,-0.1905 -0.14816,-0.338666 -0.33866,-0.338666 -0.1905,0 -0.33867,0.148166 -0.33867,0.338666 v 4.296817 c 0,0.1905 0.14817,0.33867 0.33867,0.33867 0.1905,0 0.33866,-0.14817 0.33866,-0.33867 v -2.37066 c 0,-0.973661 0.49742,-1.650992 1.47108,-1.650992 0.17992,0 0.32809,-0.148166 0.32809,-0.328082 0,-0.179916 -0.14817,-0.328082 -0.32809,-0.328082 -0.73024,0 -1.25941,0.359832 -1.47108,0.846664 z"
           style="font-weight:normal;-inkscape-font-specification:Bariol"
           id="path4367" />
        <path
           d="m 104.86087,100.72108 c 0,1.77799 0.87841,2.55057 2.28599,2.55057 0.94192,0 1.49225,-0.43391 1.651,-0.59266 0.0635,-0.0635 0.11641,-0.127 0.11641,-0.24342 0,-0.16933 -0.13758,-0.30691 -0.30691,-0.30691 -0.0847,0 -0.127,0.0212 -0.1905,0.0635 -0.29633,0.22225 -0.65617,0.45508 -1.27,0.45508 -0.99483,0 -1.59808,-0.67733 -1.59808,-1.72508 h 3.09033 c 0.42333,0 0.42333,-0.37041 0.42333,-0.67733 0,-0.719664 -0.32808,-2.063743 -2.02141,-2.063743 -1.37583,0 -2.18016,0.910164 -2.18016,2.539993 z m 3.53482,-0.39158 h -2.84691 c 0.0635,-0.941917 0.5715,-1.534582 1.49225,-1.534582 1.09008,0 1.35466,0.772581 1.35466,1.534582 z"
           style="font-weight:normal;-inkscape-font-specification:Bariol"
           id="path4369" />
      </g>
      <path
         id="path9199"
         style="fill:#facc10;stroke-width:1.44108;stroke-linecap:round;paint-order:fill markers stroke"
         d="m 112.21455,102.27165 a 1,1 0 0 1 -1,1 1,1 0 0 1 -1,-1 1,1 0 0 1 1,-1 1,1 0 0 1 1,1 z" />
    </g>
  </g>
</svg>
