<?xml version="1.0" encoding="UTF-8" standalone="no"?>
<svg
   xmlns:dc="http://purl.org/dc/elements/1.1/"
   xmlns:cc="http://creativecommons.org/ns#"
   xmlns:rdf="http://www.w3.org/1999/02/22-rdf-syntax-ns#"
   xmlns:svg="http://www.w3.org/2000/svg"
   xmlns="http://www.w3.org/2000/svg"
   xmlns:sodipodi="http://sodipodi.sourceforge.net/DTD/sodipodi-0.dtd"
   xmlns:inkscape="http://www.inkscape.org/namespaces/inkscape"
   width="200mm"
   height="50.52927mm"
   viewBox="0 0 200 50.52927"
   version="1.1"
   id="svg1528"
   inkscape:version="1.0 (4035a4fb49, 2020-05-01)"
   sodipodi:docname="twikipedia.svg">
  <defs
     id="defs1522" />
  <sodipodi:namedview
     id="base"
     pagecolor="#ffffff"
     bordercolor="#666666"
     borderopacity="1.0"
     inkscape:pageopacity="0.0"
     inkscape:pageshadow="2"
     inkscape:zoom="0.98994949"
     inkscape:cx="447.16586"
     inkscape:cy="147.25838"
     inkscape:document-units="mm"
     inkscape:current-layer="layer1"
     inkscape:document-rotation="0"
     showgrid="false"
     fit-margin-top="0"
     fit-margin-left="0"
     fit-margin-right="0"
     fit-margin-bottom="0"
     inkscape:window-width="1920"
     inkscape:window-height="1017"
     inkscape:window-x="3832"
     inkscape:window-y="-8"
     inkscape:window-maximized="1" />
  <metadata
     id="metadata1525">
    <rdf:RDF>
      <cc:Work
         rdf:about="">
        <dc:format>image/svg+xml</dc:format>
        <dc:type
           rdf:resource="http://purl.org/dc/dcmitype/StillImage" />
        <dc:title />
      </cc:Work>
    </rdf:RDF>
  </metadata>
  <g
     inkscape:label="Layer 1"
     inkscape:groupmode="layer"
     id="layer1"
     transform="translate(-8.8571019,-98.711563)">
    <g
       id="g947">
      <g
         aria-label="tWikipedia"
         id="text1473"
         style="font-style:normal;font-weight:normal;font-size:33.4607px;line-height:1.25;font-family:sans-serif;letter-spacing:0px;word-spacing:0px;fill:#000000;fill-opacity:1;stroke:none;stroke-width:0.836518">
        <path
           d="m 16.896035,133.75883 c 0,2.978 4.416812,2.91108 4.416812,0 v -16.89766 h 5.554477 c 2.978002,0 2.978002,-4.28297 0,-4.28297 H 11.040412 c -2.9110807,0 -2.9110807,4.28297 0,4.28297 h 5.855623 z"
           style="font-style:normal;font-variant:normal;font-weight:normal;font-stretch:normal;font-family:Multicolore;-inkscape-font-specification:Multicolore;stroke-width:0.836518"
           id="path864" />
        <path
           d="m 49.769083,113.95009 c -0.869978,-2.0411 -2.978002,-1.94072 -3.781059,0.10038 l -5.922544,13.78581 -4.952184,-13.78581 c -0.869978,-2.64339 -5.119487,-1.53919 -4.115666,1.47227 l 6.491376,18.23609 c 0.535371,1.47227 1.137664,2.27532 2.308788,2.27532 1.204585,0 1.773417,-0.80305 2.37571,-2.2084 l 5.554476,-13.01622 5.822162,13.21698 c 0.669214,1.20459 1.037282,1.94072 2.241867,1.94072 1.137664,0 1.706496,-0.56883 2.308789,-2.47609 l 6.625218,-17.9684 c 1.003821,-2.91108 -3.044923,-4.18258 -4.048744,-1.47227 l -4.985645,13.78581 z"
           style="font-style:normal;font-variant:normal;font-weight:normal;font-stretch:normal;font-family:Multicolore;-inkscape-font-specification:Multicolore;stroke-width:0.836518"
           id="path866" />
        <path
           d="m 68.15417,133.79229 c 0,2.84416 4.416812,2.77723 4.416812,0 v -19.10606 c 0,-2.84416 -4.416812,-2.74378 -4.416812,0 z"
           style="font-style:normal;font-variant:normal;font-weight:normal;font-stretch:normal;font-family:Multicolore;-inkscape-font-specification:Multicolore;stroke-width:0.836518"
           id="path868" />
        <path
           d="m 92.584141,135.06379 c 1.338428,2.14149 5.621397,0.13385 3.613755,-2.64339 l -7.829804,-9.46938 c 2.141485,-2.34225 4.450273,-4.41681 6.424455,-6.75906 0.936899,-0.90344 0.936899,-2.07457 0,-2.978 -0.836518,-0.83652 -2.007642,-1.10421 -3.178767,0 l -9.670142,9.97128 v -8.49901 c 0,-2.94455 -4.416813,-2.84416 -4.416813,0 0,6.45791 0,12.6816 0,19.10606 0,2.8107 4.416813,2.77723 4.416813,0 v -4.6845 l 3.178766,-3.51338 z"
           style="font-style:normal;font-variant:normal;font-weight:normal;font-stretch:normal;font-family:Multicolore;-inkscape-font-specification:Multicolore;stroke-width:0.836518"
           id="path870" />
        <path
           d="m 100.24246,133.79229 c 0,2.84416 4.41681,2.77723 4.41681,0 v -19.10606 c 0,-2.84416 -4.41681,-2.74378 -4.41681,0 z"
           style="font-style:normal;font-variant:normal;font-weight:normal;font-stretch:normal;font-family:Multicolore;-inkscape-font-specification:Multicolore;stroke-width:0.836518"
           id="path872" />
        <path
           d="m 109.64857,133.5246 c 0,1.47227 1.17113,2.30879 2.27533,2.30879 1.20459,0 2.14149,-0.83652 2.14149,-2.30879 v -4.41681 h 5.58793 c 4.34989,0 8.2648,-2.94454 8.2648,-8.23133 0,-5.58794 -3.91491,-8.49902 -8.2648,-8.49902 h -7.72942 c -1.40535,0 -2.27533,1.20458 -2.27533,2.30879 z m 10.00475,-16.93111 c 2.24187,0 4.01529,1.94072 4.01529,4.28297 0,2.07456 -1.77342,4.04874 -4.01529,4.04874 h -5.58793 v -8.33171 z"
           style="font-style:normal;font-variant:normal;font-weight:normal;font-stretch:normal;font-family:Multicolore;-inkscape-font-specification:Multicolore;stroke-width:0.836518"
           id="path874" />
        <path
           d="m 146.06532,135.83339 c 3.27915,0 3.04492,-4.38335 0,-4.38335 h -10.20551 v -5.01911 h 8.43209 c 2.978,0 2.978,-4.38335 0,-4.38335 h -8.43209 v -5.0191 h 9.63668 c 3.01146,0 3.07838,-4.3499 0,-4.3499 H 133.4841 c -1.17113,0 -2.07457,0.86998 -2.07457,2.07457 v 19.00568 c 0,1.17112 0.90344,2.07456 2.07457,2.07456 z"
           style="font-style:normal;font-variant:normal;font-weight:normal;font-stretch:normal;font-family:Multicolore;-inkscape-font-specification:Multicolore;stroke-width:0.836518"
           id="path876" />
        <path
           d="m 162.00046,116.76079 c 9.43592,0 9.03439,14.99039 0,14.99039 h -5.55447 v -14.99039 z m 0.30115,19.0726 c 14.65579,0 14.99039,-23.15481 -0.30115,-23.15481 h -7.6625 c -1.1042,0 -2.30879,0.86998 -2.30879,2.07457 v 19.00568 c 0,1.47227 1.20459,2.07456 2.30879,2.07456 z"
           style="font-style:normal;font-variant:normal;font-weight:normal;font-stretch:normal;font-family:Multicolore;-inkscape-font-specification:Multicolore;stroke-width:0.836518"
           id="path878" />
        <path
           d="m 177.55498,133.79229 c 0,2.84416 4.41681,2.77723 4.41681,0 v -19.10606 c 0,-2.84416 -4.41681,-2.74378 -4.41681,0 z"
           style="font-style:normal;font-variant:normal;font-weight:normal;font-stretch:normal;font-family:Multicolore;-inkscape-font-specification:Multicolore;stroke-width:0.836518"
           id="path880" />
        <path
           d="m 189.43718,134.69573 1.43881,-2.94455 h 12.347 l 1.47227,2.94455 c 1.20459,2.60993 5.25333,0.53537 3.88144,-2.07457 l -9.43592,-18.77145 c -0.83651,-1.84034 -3.24568,-1.77342 -4.14912,0 l -9.60322,18.77145 c -0.66922,1.40535 0,2.60994 1.07074,3.21223 1.20458,0.23422 2.44263,0 2.978,-1.13766 z m 3.51337,-7.36136 4.11567,-8.26479 3.78106,8.26479 z"
           style="font-style:normal;font-variant:normal;font-weight:normal;font-stretch:normal;font-family:Multicolore;-inkscape-font-specification:Multicolore;stroke-width:0.836518"
           id="path882" />
      </g>
      <g
         id="g1481"
         transform="matrix(0.86941762,0,0,0.86941762,-223.20852,147.33569)"
         style="fill:#facc10;fill-opacity:1">
        <circle
           style="fill:#facc10;fill-opacity:1;stroke-width:2.86817;stroke-linecap:round;paint-order:fill markers stroke"
           id="circle1475"
           cx="337.68048"
           cy="-50.472466"
           r="5.4547682" />
        <circle
           r="5.4547682"
           cy="-50.472466"
           cx="374.53693"
           id="circle1477"
           style="fill:#facc10;fill-opacity:1;stroke-width:2.86817;stroke-linecap:round;paint-order:fill markers stroke" />
        <circle
           style="fill:#facc10;fill-opacity:1;stroke-width:2.86817;stroke-linecap:round;paint-order:fill markers stroke"
           id="circle1479"
           cx="463.40402"
           cy="-50.472466"
           r="5.4547682" />
      </g>
      <g
         aria-label="chrome extension"
         id="text1487"
         style="font-style:normal;font-weight:normal;font-size:6.47019px;line-height:1.25;font-family:sans-serif;letter-spacing:0px;word-spacing:0px;fill:#666666;fill-opacity:1;stroke:none;stroke-width:0.161754">
        <path
           d="m 144.46166,149.15003 c 0.53702,0 1.08052,-0.0841 1.53343,-0.50468 0.22646,-0.22645 0.1747,-0.46585 0.0712,-0.6082 -0.11646,-0.15528 -0.39468,-0.23292 -0.59526,-0.0776 -0.29762,0.26528 -0.64054,0.41409 -1.00934,0.41409 -1.00288,0 -1.47521,-0.7376 -1.47521,-1.5399 0,-0.78936 0.4788,-1.49461 1.47521,-1.49461 0.3688,0 0.64054,0.0776 0.90582,0.35586 0.15529,0.15528 0.42056,0.17469 0.59526,0.0194 0.17469,-0.18117 0.15528,-0.46586 -0.0194,-0.62761 -0.47233,-0.40762 -0.91877,-0.57585 -1.48167,-0.57585 -1.48815,0 -2.27104,1.07405 -2.27104,2.3228 0,1.24875 0.70525,2.31633 2.27104,2.31633 z"
           style="font-style:normal;font-variant:normal;font-weight:normal;font-stretch:normal;font-family:Multicolore;-inkscape-font-specification:Multicolore;fill:#666666;stroke-width:0.161754"
           id="path885" />
        <path
           d="m 147.36758,149.10474 c 0.22646,0 0.39468,-0.1747 0.39468,-0.40116 v -1.41697 h 2.10928 v 1.41697 c 0,0.22646 0.20705,0.40116 0.43998,0.40116 0.22645,0 0.40115,-0.1747 0.40115,-0.40116 v -3.67506 c 0,-0.23293 -0.1747,-0.40116 -0.40115,-0.40116 -0.23293,0 -0.43998,0.16823 -0.43998,0.40116 v 1.4105 h -2.10928 v -1.4105 c 0,-0.23293 -0.16822,-0.40116 -0.39468,-0.40116 -0.29116,0 -0.45938,0.16823 -0.45938,0.40116 v 3.67506 c 0,0.22646 0.16822,0.40116 0.45938,0.40116 z"
           style="font-style:normal;font-variant:normal;font-weight:normal;font-stretch:normal;font-family:Multicolore;-inkscape-font-specification:Multicolore;fill:#666666;stroke-width:0.161754"
           id="path887" />
        <path
           d="m 152.4759,147.51307 h 1.01582 l 0.97699,1.39756 c 0.38822,0.49174 1.06112,0.0129 0.72467,-0.48526 l -0.86054,-1.04817 c 1.37168,-0.54997 1.03523,-2.74984 -0.6082,-2.74984 h -1.72107 c -0.21351,0 -0.38821,0.16823 -0.38821,0.39469 v 3.67506 c 0,0.56938 0.86054,0.54997 0.86054,-0.0129 z m 0,-2.10281 h 1.24874 c 0.89289,0 0.84113,1.35874 0,1.35874 h -1.24874 z"
           style="font-style:normal;font-variant:normal;font-weight:normal;font-stretch:normal;font-family:Multicolore;-inkscape-font-specification:Multicolore;fill:#666666;stroke-width:0.161754"
           id="path889" />
        <path
           d="m 160.58163,146.84017 c 0,-1.53344 -1.18405,-2.31633 -2.31633,-2.37456 -1.19699,0 -2.43926,0.78289 -2.43926,2.37456 0,1.5852 1.24227,2.38103 2.43926,2.32927 1.13228,0 2.31633,-0.79584 2.31633,-2.32927 z m -0.8476,0 c 0,1.01582 -0.79583,1.53343 -1.5399,1.53343 -0.72466,0 -1.51403,-0.51761 -1.51403,-1.53343 0,-1.02229 0.78937,-1.53344 1.51403,-1.53344 0.74407,0 1.5399,0.51115 1.5399,1.53344 z"
           style="font-style:normal;font-variant:normal;font-weight:normal;font-stretch:normal;font-family:Multicolore;-inkscape-font-specification:Multicolore;fill:#666666;stroke-width:0.161754"
           id="path891" />
        <path
           d="m 163.19579,147.62306 c 0.21351,0.28469 0.50467,0.28469 0.7376,0 l 1.07405,-1.35874 v 2.39397 c 0,0.28469 0.18117,0.44645 0.41409,0.44645 0.20705,0 0.38821,-0.16176 0.38821,-0.44645 v -3.64271 c 0,-0.44645 -0.52408,-0.54997 -0.7376,-0.28469 l -1.4752,1.99282 -1.42344,-1.92165 c -0.11,-0.12293 -0.21999,-0.23293 -0.40763,-0.23293 -0.10352,0 -0.38821,0.11 -0.38821,0.44645 v 3.64271 c 0,0.28469 0.18117,0.44645 0.38821,0.44645 0.23293,0 0.46586,-0.16176 0.46586,-0.44645 v -2.39397 z"
           style="font-style:normal;font-variant:normal;font-weight:normal;font-stretch:normal;font-family:Multicolore;-inkscape-font-specification:Multicolore;fill:#666666;stroke-width:0.161754"
           id="path893" />
        <path
           d="m 169.53152,149.10474 c 0.63408,0 0.58879,-0.8476 0,-0.8476 h -1.97341 v -0.97053 h 1.63049 c 0.57585,0 0.57585,-0.84759 0,-0.84759 h -1.63049 v -0.97053 h 1.86342 c 0.58231,0 0.59525,-0.84113 0,-0.84113 h -2.3228 c -0.22646,0 -0.40115,0.16823 -0.40115,0.40116 v 3.67506 c 0,0.22646 0.17469,0.40116 0.40115,0.40116 z"
           style="font-style:normal;font-variant:normal;font-weight:normal;font-stretch:normal;font-family:Multicolore;-inkscape-font-specification:Multicolore;fill:#666666;stroke-width:0.161754"
           id="path895" />
        <path
           d="m 175.40776,149.10474 c 0.63408,0 0.58879,-0.8476 0,-0.8476 h -1.9734 v -0.97053 h 1.63048 c 0.57585,0 0.57585,-0.84759 0,-0.84759 h -1.63048 v -0.97053 h 1.86341 c 0.58232,0 0.59526,-0.84113 0,-0.84113 h -2.3228 c -0.22645,0 -0.40115,0.16823 -0.40115,0.40116 v 3.67506 c 0,0.22646 0.1747,0.40116 0.40115,0.40116 z"
           style="font-style:normal;font-variant:normal;font-weight:normal;font-stretch:normal;font-family:Multicolore;-inkscape-font-specification:Multicolore;fill:#666666;stroke-width:0.161754"
           id="path897" />
        <path
           d="m 177.09153,144.78265 c -0.29763,-0.45291 -1.05464,0.0453 -0.64702,0.53055 0.39468,0.45939 0.78937,0.95759 1.19699,1.46874 l -1.30051,1.6499 c -0.3688,0.43997 0.36233,0.97053 0.69231,0.4982 l 1.1711,-1.55931 1.19052,1.52696 c 0.34939,0.47879 1.06111,0.0129 0.70525,-0.47232 l -1.31992,-1.64343 c 0.38821,-0.51115 0.79583,-1.00935 1.18405,-1.46874 0.3688,-0.42056 -0.28469,-0.98346 -0.62114,-0.54349 l -1.12582,1.4105 z"
           style="font-style:normal;font-variant:normal;font-weight:normal;font-stretch:normal;font-family:Multicolore;-inkscape-font-specification:Multicolore;fill:#666666;stroke-width:0.161754"
           id="path899" />
        <path
           d="m 181.94761,148.70358 c 0,0.57585 0.85407,0.56291 0.85407,0 v -3.26744 h 1.07405 c 0.57584,0 0.57584,-0.82819 0,-0.82819 h -3.0604 c -0.56291,0 -0.56291,0.82819 0,0.82819 h 1.13228 z"
           style="font-style:normal;font-variant:normal;font-weight:normal;font-stretch:normal;font-family:Multicolore;-inkscape-font-specification:Multicolore;fill:#666666;stroke-width:0.161754"
           id="path901" />
        <path
           d="m 187.7542,149.10474 c 0.63408,0 0.58879,-0.8476 0,-0.8476 h -1.97341 v -0.97053 h 1.63049 c 0.57585,0 0.57585,-0.84759 0,-0.84759 h -1.63049 v -0.97053 h 1.86342 c 0.58232,0 0.59526,-0.84113 0,-0.84113 h -2.3228 c -0.22646,0 -0.40115,0.16823 -0.40115,0.40116 v 3.67506 c 0,0.22646 0.17469,0.40116 0.40115,0.40116 z"
           style="font-style:normal;font-variant:normal;font-weight:normal;font-stretch:normal;font-family:Multicolore;-inkscape-font-specification:Multicolore;fill:#666666;stroke-width:0.161754"
           id="path903" />
        <path
           d="m 188.91388,148.65829 c 0,0.28469 0.20705,0.44645 0.43997,0.44645 0.23293,0 0.40763,-0.16176 0.40763,-0.44645 v -2.49749 l 2.14163,2.71748 c 0.18764,0.17469 0.29763,0.22646 0.52408,0.22646 0.16823,-0.0518 0.34293,-0.16176 0.34293,-0.44645 v -3.64271 c 0,-0.21352 -0.22646,-0.44645 -0.45939,-0.44645 -0.21998,0 -0.40762,0.23293 -0.40762,0.44645 v 2.51043 l -2.14163,-2.67866 c -0.1747,-0.16822 -0.22646,-0.22646 -0.45939,-0.22646 -0.33645,0 -0.38821,0.22646 -0.38821,0.45939 z"
           style="font-style:normal;font-variant:normal;font-weight:normal;font-stretch:normal;font-family:Multicolore;-inkscape-font-specification:Multicolore;fill:#666666;stroke-width:0.161754"
           id="path905" />
        <path
           d="m 196.16909,147.81717 c -0.0971,0.91877 -1.46226,0.64702 -1.99282,0.28469 -0.21999,-0.18117 -0.40762,-0.12294 -0.57585,0.0453 -0.11646,0.17469 -0.12293,0.45938 0.0906,0.63408 0.89288,0.7376 3.27391,0.69878 3.3192,-0.94465 0.0453,-1.72107 -2.76924,-1.11287 -2.59454,-2.17398 0.13587,-0.6729 1.22286,-0.53056 1.70166,-0.22646 0.38821,0.28469 0.85406,-0.27822 0.41409,-0.63408 -0.89289,-0.68584 -2.78865,-0.45938 -2.93747,0.79583 -0.20057,1.83754 2.49103,1.26169 2.57514,2.21928 z"
           style="font-style:normal;font-variant:normal;font-weight:normal;font-stretch:normal;font-family:Multicolore;-inkscape-font-specification:Multicolore;fill:#666666;stroke-width:0.161754"
           id="path907" />
        <path
           d="m 197.79867,148.71005 c 0,0.54997 0.85406,0.53703 0.85406,0 v -3.69447 c 0,-0.54997 -0.85406,-0.53056 -0.85406,0 z"
           style="font-style:normal;font-variant:normal;font-weight:normal;font-stretch:normal;font-family:Multicolore;-inkscape-font-specification:Multicolore;fill:#666666;stroke-width:0.161754"
           id="path909" />
        <path
           d="m 204.20486,146.84017 c 0,-1.53344 -1.18404,-2.31633 -2.31632,-2.37456 -1.19699,0 -2.43927,0.78289 -2.43927,2.37456 0,1.5852 1.24228,2.38103 2.43927,2.32927 1.13228,0 2.31632,-0.79584 2.31632,-2.32927 z m -0.84759,0 c 0,1.01582 -0.79583,1.53343 -1.53991,1.53343 -0.72466,0 -1.51402,-0.51761 -1.51402,-1.53343 0,-1.02229 0.78936,-1.53344 1.51402,-1.53344 0.74408,0 1.53991,0.51115 1.53991,1.53344 z"
           style="font-style:normal;font-variant:normal;font-weight:normal;font-stretch:normal;font-family:Multicolore;-inkscape-font-specification:Multicolore;fill:#666666;stroke-width:0.161754"
           id="path911" />
        <path
           d="m 205.0009,148.65829 c 0,0.28469 0.20704,0.44645 0.43997,0.44645 0.23293,0 0.40762,-0.16176 0.40762,-0.44645 v -2.49749 l 2.14164,2.71748 c 0.18763,0.17469 0.29763,0.22646 0.52408,0.22646 0.16823,-0.0518 0.34292,-0.16176 0.34292,-0.44645 v -3.64271 c 0,-0.21352 -0.22645,-0.44645 -0.45938,-0.44645 -0.21999,0 -0.40762,0.23293 -0.40762,0.44645 v 2.51043 l -2.14164,-2.67866 c -0.17469,-0.16822 -0.22645,-0.22646 -0.45938,-0.22646 -0.33645,0 -0.38821,0.22646 -0.38821,0.45939 z"
           style="font-style:normal;font-variant:normal;font-weight:normal;font-stretch:normal;font-family:Multicolore;-inkscape-font-specification:Multicolore;fill:#666666;stroke-width:0.161754"
           id="path913" />
      </g>
    </g>
  </g>
</svg>
