<?xml version="1.0" encoding="UTF-8" standalone="no"?>
<!-- Created with Inkscape (http://www.inkscape.org/) -->

<svg
   width="41.383076mm"
   height="10.253425mm"
   viewBox="0 0 41.383076 10.253425"
   version="1.1"
   id="svg5"
   inkscape:version="1.1 (c68e22c387, 2021-05-23)"
   sodipodi:docname="feutre.svg"
   xmlns:inkscape="http://www.inkscape.org/namespaces/inkscape"
   xmlns:sodipodi="http://sodipodi.sourceforge.net/DTD/sodipodi-0.dtd"
   xmlns="http://www.w3.org/2000/svg"
   xmlns:svg="http://www.w3.org/2000/svg">
  <sodipodi:namedview
     id="namedview7"
     pagecolor="#ffffff"
     bordercolor="#666666"
     borderopacity="1.0"
     inkscape:pageshadow="2"
     inkscape:pageopacity="0.0"
     inkscape:pagecheckerboard="0"
     inkscape:document-units="mm"
     showgrid="false"
     inkscape:zoom="4.323827"
     inkscape:cx="67.185852"
     inkscape:cy="35.963511"
     inkscape:window-width="1920"
     inkscape:window-height="1017"
     inkscape:window-x="3832"
     inkscape:window-y="-8"
     inkscape:window-maximized="1"
     inkscape:current-layer="layer1"
     fit-margin-top="0"
     fit-margin-left="0"
     fit-margin-right="0"
     fit-margin-bottom="0" />
  <defs
     id="defs2" />
  <g
     inkscape:label="Layer 1"
     inkscape:groupmode="layer"
     id="layer1"
     transform="translate(-75.469933,-84.807873)">
    <g
       id="g14203">
      <g
         aria-label="chrome extension"
         id="text1487"
         style="font-style:normal;font-weight:normal;font-size:6.47019px;line-height:1.25;font-family:sans-serif;letter-spacing:0px;word-spacing:0px;fill:#cccccc;fill-opacity:1;stroke:none;stroke-width:0.161754"
         transform="matrix(0.31123545,0,0,0.31123545,48.315784,48.612255)">
        <path
           d="m 144.46166,149.15003 c 0.53702,0 1.08052,-0.0841 1.53343,-0.50468 0.22646,-0.22645 0.1747,-0.46585 0.0712,-0.6082 -0.11646,-0.15528 -0.39468,-0.23292 -0.59526,-0.0776 -0.29762,0.26528 -0.64054,0.41409 -1.00934,0.41409 -1.00288,0 -1.47521,-0.7376 -1.47521,-1.5399 0,-0.78936 0.4788,-1.49461 1.47521,-1.49461 0.3688,0 0.64054,0.0776 0.90582,0.35586 0.15529,0.15528 0.42056,0.17469 0.59526,0.0194 0.17469,-0.18117 0.15528,-0.46586 -0.0194,-0.62761 -0.47233,-0.40762 -0.91877,-0.57585 -1.48167,-0.57585 -1.48815,0 -2.27104,1.07405 -2.27104,2.3228 0,1.24875 0.70525,2.31633 2.27104,2.31633 z"
           style="font-style:normal;font-variant:normal;font-weight:normal;font-stretch:normal;font-family:Multicolore;-inkscape-font-specification:Multicolore;fill:#cccccc;stroke-width:0.161754"
           id="path885" />
        <path
           d="m 147.36758,149.10474 c 0.22646,0 0.39468,-0.1747 0.39468,-0.40116 v -1.41697 h 2.10928 v 1.41697 c 0,0.22646 0.20705,0.40116 0.43998,0.40116 0.22645,0 0.40115,-0.1747 0.40115,-0.40116 v -3.67506 c 0,-0.23293 -0.1747,-0.40116 -0.40115,-0.40116 -0.23293,0 -0.43998,0.16823 -0.43998,0.40116 v 1.4105 h -2.10928 v -1.4105 c 0,-0.23293 -0.16822,-0.40116 -0.39468,-0.40116 -0.29116,0 -0.45938,0.16823 -0.45938,0.40116 v 3.67506 c 0,0.22646 0.16822,0.40116 0.45938,0.40116 z"
           style="font-style:normal;font-variant:normal;font-weight:normal;font-stretch:normal;font-family:Multicolore;-inkscape-font-specification:Multicolore;fill:#cccccc;stroke-width:0.161754"
           id="path887" />
        <path
           d="m 152.4759,147.51307 h 1.01582 l 0.97699,1.39756 c 0.38822,0.49174 1.06112,0.0129 0.72467,-0.48526 l -0.86054,-1.04817 c 1.37168,-0.54997 1.03523,-2.74984 -0.6082,-2.74984 h -1.72107 c -0.21351,0 -0.38821,0.16823 -0.38821,0.39469 v 3.67506 c 0,0.56938 0.86054,0.54997 0.86054,-0.0129 z m 0,-2.10281 h 1.24874 c 0.89289,0 0.84113,1.35874 0,1.35874 h -1.24874 z"
           style="font-style:normal;font-variant:normal;font-weight:normal;font-stretch:normal;font-family:Multicolore;-inkscape-font-specification:Multicolore;fill:#cccccc;stroke-width:0.161754"
           id="path889" />
        <path
           d="m 160.58163,146.84017 c 0,-1.53344 -1.18405,-2.31633 -2.31633,-2.37456 -1.19699,0 -2.43926,0.78289 -2.43926,2.37456 0,1.5852 1.24227,2.38103 2.43926,2.32927 1.13228,0 2.31633,-0.79584 2.31633,-2.32927 z m -0.8476,0 c 0,1.01582 -0.79583,1.53343 -1.5399,1.53343 -0.72466,0 -1.51403,-0.51761 -1.51403,-1.53343 0,-1.02229 0.78937,-1.53344 1.51403,-1.53344 0.74407,0 1.5399,0.51115 1.5399,1.53344 z"
           style="font-style:normal;font-variant:normal;font-weight:normal;font-stretch:normal;font-family:Multicolore;-inkscape-font-specification:Multicolore;fill:#cccccc;stroke-width:0.161754"
           id="path891" />
        <path
           d="m 163.19579,147.62306 c 0.21351,0.28469 0.50467,0.28469 0.7376,0 l 1.07405,-1.35874 v 2.39397 c 0,0.28469 0.18117,0.44645 0.41409,0.44645 0.20705,0 0.38821,-0.16176 0.38821,-0.44645 v -3.64271 c 0,-0.44645 -0.52408,-0.54997 -0.7376,-0.28469 l -1.4752,1.99282 -1.42344,-1.92165 c -0.11,-0.12293 -0.21999,-0.23293 -0.40763,-0.23293 -0.10352,0 -0.38821,0.11 -0.38821,0.44645 v 3.64271 c 0,0.28469 0.18117,0.44645 0.38821,0.44645 0.23293,0 0.46586,-0.16176 0.46586,-0.44645 v -2.39397 z"
           style="font-style:normal;font-variant:normal;font-weight:normal;font-stretch:normal;font-family:Multicolore;-inkscape-font-specification:Multicolore;fill:#cccccc;stroke-width:0.161754"
           id="path893" />
        <path
           d="m 169.53152,149.10474 c 0.63408,0 0.58879,-0.8476 0,-0.8476 h -1.97341 v -0.97053 h 1.63049 c 0.57585,0 0.57585,-0.84759 0,-0.84759 h -1.63049 v -0.97053 h 1.86342 c 0.58231,0 0.59525,-0.84113 0,-0.84113 h -2.3228 c -0.22646,0 -0.40115,0.16823 -0.40115,0.40116 v 3.67506 c 0,0.22646 0.17469,0.40116 0.40115,0.40116 z"
           style="font-style:normal;font-variant:normal;font-weight:normal;font-stretch:normal;font-family:Multicolore;-inkscape-font-specification:Multicolore;fill:#cccccc;stroke-width:0.161754"
           id="path895" />
        <path
           d="m 175.40776,149.10474 c 0.63408,0 0.58879,-0.8476 0,-0.8476 h -1.9734 v -0.97053 h 1.63048 c 0.57585,0 0.57585,-0.84759 0,-0.84759 h -1.63048 v -0.97053 h 1.86341 c 0.58232,0 0.59526,-0.84113 0,-0.84113 h -2.3228 c -0.22645,0 -0.40115,0.16823 -0.40115,0.40116 v 3.67506 c 0,0.22646 0.1747,0.40116 0.40115,0.40116 z"
           style="font-style:normal;font-variant:normal;font-weight:normal;font-stretch:normal;font-family:Multicolore;-inkscape-font-specification:Multicolore;fill:#cccccc;stroke-width:0.161754"
           id="path897" />
        <path
           d="m 177.09153,144.78265 c -0.29763,-0.45291 -1.05464,0.0453 -0.64702,0.53055 0.39468,0.45939 0.78937,0.95759 1.19699,1.46874 l -1.30051,1.6499 c -0.3688,0.43997 0.36233,0.97053 0.69231,0.4982 l 1.1711,-1.55931 1.19052,1.52696 c 0.34939,0.47879 1.06111,0.0129 0.70525,-0.47232 l -1.31992,-1.64343 c 0.38821,-0.51115 0.79583,-1.00935 1.18405,-1.46874 0.3688,-0.42056 -0.28469,-0.98346 -0.62114,-0.54349 l -1.12582,1.4105 z"
           style="font-style:normal;font-variant:normal;font-weight:normal;font-stretch:normal;font-family:Multicolore;-inkscape-font-specification:Multicolore;fill:#cccccc;stroke-width:0.161754"
           id="path899" />
        <path
           d="m 181.94761,148.70358 c 0,0.57585 0.85407,0.56291 0.85407,0 v -3.26744 h 1.07405 c 0.57584,0 0.57584,-0.82819 0,-0.82819 h -3.0604 c -0.56291,0 -0.56291,0.82819 0,0.82819 h 1.13228 z"
           style="font-style:normal;font-variant:normal;font-weight:normal;font-stretch:normal;font-family:Multicolore;-inkscape-font-specification:Multicolore;fill:#cccccc;stroke-width:0.161754"
           id="path901" />
        <path
           d="m 187.7542,149.10474 c 0.63408,0 0.58879,-0.8476 0,-0.8476 h -1.97341 v -0.97053 h 1.63049 c 0.57585,0 0.57585,-0.84759 0,-0.84759 h -1.63049 v -0.97053 h 1.86342 c 0.58232,0 0.59526,-0.84113 0,-0.84113 h -2.3228 c -0.22646,0 -0.40115,0.16823 -0.40115,0.40116 v 3.67506 c 0,0.22646 0.17469,0.40116 0.40115,0.40116 z"
           style="font-style:normal;font-variant:normal;font-weight:normal;font-stretch:normal;font-family:Multicolore;-inkscape-font-specification:Multicolore;fill:#cccccc;stroke-width:0.161754"
           id="path903" />
        <path
           d="m 188.91388,148.65829 c 0,0.28469 0.20705,0.44645 0.43997,0.44645 0.23293,0 0.40763,-0.16176 0.40763,-0.44645 v -2.49749 l 2.14163,2.71748 c 0.18764,0.17469 0.29763,0.22646 0.52408,0.22646 0.16823,-0.0518 0.34293,-0.16176 0.34293,-0.44645 v -3.64271 c 0,-0.21352 -0.22646,-0.44645 -0.45939,-0.44645 -0.21998,0 -0.40762,0.23293 -0.40762,0.44645 v 2.51043 l -2.14163,-2.67866 c -0.1747,-0.16822 -0.22646,-0.22646 -0.45939,-0.22646 -0.33645,0 -0.38821,0.22646 -0.38821,0.45939 z"
           style="font-style:normal;font-variant:normal;font-weight:normal;font-stretch:normal;font-family:Multicolore;-inkscape-font-specification:Multicolore;fill:#cccccc;stroke-width:0.161754"
           id="path905" />
        <path
           d="m 196.16909,147.81717 c -0.0971,0.91877 -1.46226,0.64702 -1.99282,0.28469 -0.21999,-0.18117 -0.40762,-0.12294 -0.57585,0.0453 -0.11646,0.17469 -0.12293,0.45938 0.0906,0.63408 0.89288,0.7376 3.27391,0.69878 3.3192,-0.94465 0.0453,-1.72107 -2.76924,-1.11287 -2.59454,-2.17398 0.13587,-0.6729 1.22286,-0.53056 1.70166,-0.22646 0.38821,0.28469 0.85406,-0.27822 0.41409,-0.63408 -0.89289,-0.68584 -2.78865,-0.45938 -2.93747,0.79583 -0.20057,1.83754 2.49103,1.26169 2.57514,2.21928 z"
           style="font-style:normal;font-variant:normal;font-weight:normal;font-stretch:normal;font-family:Multicolore;-inkscape-font-specification:Multicolore;fill:#cccccc;stroke-width:0.161754"
           id="path907" />
        <path
           d="m 197.79867,148.71005 c 0,0.54997 0.85406,0.53703 0.85406,0 v -3.69447 c 0,-0.54997 -0.85406,-0.53056 -0.85406,0 z"
           style="font-style:normal;font-variant:normal;font-weight:normal;font-stretch:normal;font-family:Multicolore;-inkscape-font-specification:Multicolore;fill:#cccccc;stroke-width:0.161754"
           id="path909" />
        <path
           d="m 204.20486,146.84017 c 0,-1.53344 -1.18404,-2.31633 -2.31632,-2.37456 -1.19699,0 -2.43927,0.78289 -2.43927,2.37456 0,1.5852 1.24228,2.38103 2.43927,2.32927 1.13228,0 2.31632,-0.79584 2.31632,-2.32927 z m -0.84759,0 c 0,1.01582 -0.79583,1.53343 -1.53991,1.53343 -0.72466,0 -1.51402,-0.51761 -1.51402,-1.53343 0,-1.02229 0.78936,-1.53344 1.51402,-1.53344 0.74408,0 1.53991,0.51115 1.53991,1.53344 z"
           style="font-style:normal;font-variant:normal;font-weight:normal;font-stretch:normal;font-family:Multicolore;-inkscape-font-specification:Multicolore;fill:#cccccc;stroke-width:0.161754"
           id="path911" />
        <path
           d="m 205.0009,148.65829 c 0,0.28469 0.20704,0.44645 0.43997,0.44645 0.23293,0 0.40762,-0.16176 0.40762,-0.44645 v -2.49749 l 2.14164,2.71748 c 0.18763,0.17469 0.29763,0.22646 0.52408,0.22646 0.16823,-0.0518 0.34292,-0.16176 0.34292,-0.44645 v -3.64271 c 0,-0.21352 -0.22645,-0.44645 -0.45938,-0.44645 -0.21999,0 -0.40762,0.23293 -0.40762,0.44645 v 2.51043 l -2.14164,-2.67866 c -0.17469,-0.16822 -0.22645,-0.22646 -0.45938,-0.22646 -0.33645,0 -0.38821,0.22646 -0.38821,0.45939 z"
           style="font-style:normal;font-variant:normal;font-weight:normal;font-stretch:normal;font-family:Multicolore;-inkscape-font-specification:Multicolore;fill:#cccccc;stroke-width:0.161754"
           id="path913" />
      </g>
      <g
         aria-label="feutre"
         id="text5437"
         style="font-size:10.5833px;line-height:1.25;letter-spacing:0px;word-spacing:0px;fill:#040305;stroke-width:0.264583">
        <path
           d="m 79.936085,86.215539 c 0.465665,0 0.740831,-0.380999 0.740831,-0.719665 0,-0.380999 -0.275166,-0.656164 -0.740831,-0.656164 h -3.714738 c -0.465665,0 -0.751414,0.275165 -0.751414,0.656164 v 6.011314 c 0,0.370416 0.285749,0.656165 0.751414,0.656165 0.370415,0 0.634998,-0.285749 0.634998,-0.656165 v -2.222493 h 1.111241 c 0.380999,0 0.761998,-0.285749 0.761998,-0.634998 0,-0.370415 -0.380999,-0.751414 -0.761998,-0.751414 h -1.111241 v -1.682744 z"
           style="font-family:Multicolore;-inkscape-font-specification:Multicolore"
           id="path13007"
           sodipodi:nodetypes="sssssssscsssccs" />
        <path
           d="m 86.476557,92.163353 c 1.037163,0 0.96308,-1.386412 0,-1.386412 H 83.24865 v -1.587495 h 2.666992 c 0.941913,0 0.941913,-1.386412 0,-1.386412 H 83.24865 v -1.587495 h 1.46049 c 0.952497,0 0.973664,-1.375829 0,-1.375829 h -2.211904 c -0.370416,0 -0.656165,0.275165 -0.656165,0.656164 v 6.011314 c 0,0.370416 0.285749,0.656165 0.656165,0.656165 z"
           style="font-family:Multicolore;-inkscape-font-specification:Multicolore"
           id="path13009"
           sodipodi:nodetypes="ssccssccsssssss" />
        <path
           d="m 93.345116,89.369362 c 0,2.211909 -3.608905,2.08491 -3.608905,0 v -3.831155 c 0,-0.99483 -1.386413,-0.952497 -1.386413,0 v 3.831155 c 0,3.958154 6.38173,3.958154 6.38173,0 v -2.243655 c 0,-1.015996 -1.386412,-0.941913 -1.386412,0 z"
           style="font-family:Multicolore;-inkscape-font-specification:Multicolore"
           id="path13011"
           sodipodi:nodetypes="sssssssss" />
        <path
           d="m 98.192259,91.507188 c 0,0.941914 1.396995,0.920747 1.396995,0 v -5.344566 h 0.698496 c 0.94192,0 0.94192,-1.354662 0,-1.354662 h -3.947569 c -0.920747,0 -0.920747,1.354662 0,1.354662 h 1.852078 z"
           style="font-family:Multicolore;-inkscape-font-specification:Multicolore"
           id="path13013"
           sodipodi:nodetypes="sscsssscs" />
        <path
           d="m 103.93897,89.559861 h 1.66158 l 1.59808,2.285993 c 0.635,0.804331 1.73566,0.02117 1.18533,-0.793747 l -1.40758,-1.714495 c 2.24366,-0.899581 1.69333,-4.497902 -0.99483,-4.497902 h -2.81516 c -0.34925,0 -0.635,0.275165 -0.635,0.645581 v 4.952981 c 0,0.93133 1.40758,0.899581 1.40758,-0.02117 z m 0,-3.439572 h 2.04258 c 1.46049,0 1.37583,2.222493 0,2.222493 h -2.04258 z"
           style="font-family:Multicolore;-inkscape-font-specification:Multicolore"
           id="path13015"
           sodipodi:nodetypes="cccccsssssccsscc" />
        <path
           d="m 112.72309,92.163353 c 1.03717,0 0.96308,-1.386412 0,-1.386412 h -1.6404 v -1.587495 h 2.66699 c 0.94191,0 0.94191,-1.386412 0,-1.386412 h -2.66699 v -1.587495 h 3.04799 c 0.95249,0 0.97366,-1.375829 0,-1.375829 h -3.79941 c -0.37041,0 -0.65616,0.275165 -0.65616,0.656164 v 6.011314 c 0,0.370416 0.28575,0.656165 0.65616,0.656165 z"
           style="font-family:Multicolore;-inkscape-font-specification:Multicolore"
           id="path13017"
           sodipodi:nodetypes="ssccssccsssssss" />
      </g>
      <path
         id="path13005"
         style="fill:#facc10;stroke-width:1.44108;stroke-linecap:round;paint-order:fill markers stroke"
         d="m 116.85301,91.337977 a 1,1 0 0 1 -1,1 1,1 0 0 1 -1,-1 1,1 0 0 1 1,-1 1,1 0 0 1 1,1 z" />
    </g>
  </g>
</svg>
